<?xml version="1.0" encoding="UTF-8"?>
<svg xmlns="http://www.w3.org/2000/svg" xmlns:xlink="http://www.w3.org/1999/xlink" width="64px" height="66px" viewBox="0 0 64 66" version="1.1">
<g id="surface1">
<path style="fill-rule:nonzero;fill:rgb(3,169,244);fill-opacity:1;stroke-width:1;stroke-linecap:butt;stroke-linejoin:miter;stroke:rgb(3,169,244);;stroke-opacity:1;stroke-miterlimit:4;" d="M 61.219531 6.423295 C 47.302734 10.237689 38.749609 15.203598 28.381641 25.504261 C 20.547266 33.285985 18.615625 35.903883 14.716406 44.036458 C 4.465234 65.393466 4.384375 86.606534 14.482813 107.54072 C 28.776953 137.183239 63.258984 153.763258 94.335938 145.945549 C 98.828125 144.812027 106.321094 142.023201 111.001953 139.747159 C 122.708594 134.025568 135.664063 121.214962 141.854297 109.214015 C 144.208203 104.661932 145.978125 100.163826 145.780469 99.219223 C 145.555859 98.121686 144.18125 99.839962 141.962109 103.969223 C 134.972266 117.04072 121.280078 128.627841 106.80625 133.737689 C 97.103125 137.165246 80.562891 138.019886 70.976563 135.590909 C 47.545313 129.644413 28.678125 111.256155 23.772656 89.575284 L 22.496875 83.952652 L 26.719531 89.647254 C 29.962891 94.019413 31.319531 97.096117 32.586328 102.916667 C 33.49375 107.090909 34.562891 110.860322 34.967188 111.301136 C 35.3625 111.732955 37.177344 107.909564 39.001172 102.799716 C 40.816016 97.680871 42.801563 93.155777 43.403516 92.741951 C 44.059375 92.283144 46.044922 93.704545 48.308984 96.241477 L 52.127344 100.496686 L 51.4625 94.892045 C 50.878516 89.899148 51.013281 89.233428 52.729297 88.783617 C 54.202734 88.39678 55.442578 89.521307 58.075 93.632576 C 63.160156 101.585227 63.699219 100.892519 60.905078 89.998106 C 59.710156 85.338068 59.719141 85.302083 61.848438 84.753314 C 63.276953 84.375473 64.678516 85.841856 67.939844 91.131629 C 70.275781 94.910038 72.530859 97.995739 72.953125 97.995739 C 73.6 97.995739 71.857031 90.420928 69.503125 83.026042 C 69.125781 81.811553 69.566016 81.08286 70.913672 80.732008 C 72.530859 80.309186 73.797656 81.838542 78.101172 89.359375 C 84.174609 99.992898 83.833203 99.498106 84.578906 98.760417 C 84.893359 98.436553 83.770313 93.857481 82.072266 88.576705 C 78.532422 77.52036 78.514453 77.403409 80.446094 76.656723 C 81.964453 76.080966 82.323828 76.584754 89.960547 89.827178 C 92.278516 93.857481 94.398828 96.934186 94.668359 96.664299 C 94.937891 96.394413 93.518359 91.113636 91.523828 84.933239 C 88.648828 76.035985 88.163672 73.517045 89.196875 72.860322 C 89.915625 72.401515 90.724219 72.03267 91.002734 72.03267 C 91.272266 72.03267 94.192188 76.863636 97.480469 82.765152 C 100.76875 88.666667 103.580859 92.822917 103.733594 92.004261 C 103.886328 91.17661 102.457813 85.778883 100.571094 80.003314 C 97.570313 70.818182 97.336719 69.387784 98.693359 68.632102 C 100.445313 67.651515 100.112891 67.237689 106.689453 78.500947 C 112.160938 87.883996 111.873438 87.461174 112.475391 86.858428 C 112.726953 86.606534 111.442188 81.60464 109.600391 75.748106 C 106.312109 65.276515 106.321094 63.999053 109.636328 63.999053 C 109.896875 63.999053 111.648828 67.372633 113.535547 71.501894 C 115.413281 75.622159 117.3 78.995739 117.722266 78.995739 C 120.471484 78.96875 127.946484 62.559659 127.973438 56.496212 C 127.991406 52.016098 125.835156 50.009943 116.671094 45.970644 C 112.250781 44.018466 101.002344 42.048295 101.002344 43.217803 C 101.002344 43.496686 102.574609 47.131155 104.497266 51.296402 C 106.428906 55.461648 108.001172 59.069129 108.001172 59.321023 C 108.001172 59.56392 107.165625 59.986742 106.141406 60.247633 C 104.667969 60.643466 103.185547 58.826231 98.891016 51.377367 C 95.926172 46.231534 93.158984 42.012311 92.745703 42.012311 C 91.775391 41.994318 91.541797 41.004735 95.369141 53.167614 C 98.522656 63.19839 98.6125 63.86411 96.860547 64.322917 C 95.369141 64.71875 93.886719 62.811553 89.322656 54.651989 C 82.719141 42.857955 83.150391 43.514678 82.476563 44.189394 C 82.180078 44.486269 83.581641 49.785038 85.585156 55.983428 C 88.460156 64.898674 88.945313 67.417614 87.903125 68.056345 C 87.184375 68.506155 86.285938 68.677083 85.908594 68.443182 C 85.53125 68.20928 82.620313 63.414299 79.430859 57.791667 C 76.250391 52.169034 73.501172 48.003788 73.330469 48.534564 C 73.150781 49.065341 74.561328 54.43608 76.457031 60.472538 C 79.727344 70.854167 79.817188 72.977273 76.996094 72.968277 C 76.726563 72.968277 74.022266 68.704072 71.003516 63.504261 C 67.975781 58.295455 65.163672 54.022254 64.750391 54.013258 C 63.789063 53.995265 63.528516 52.897727 67.391797 64.997633 C 70.554297 74.911458 70.635156 76.917614 67.867969 76.980587 C 67.517578 76.989583 65.289453 73.966856 62.917578 70.25142 C 57.616797 61.956913 58.083984 62.577652 57.553906 63.108428 C 57.311328 63.351326 58.155859 67.237689 59.431641 71.744792 C 61.731641 79.913352 61.731641 79.949337 59.728125 80.588068 C 58.488281 80.974905 57.410156 80.696023 56.933984 79.868371 C 55.191016 76.773674 49.827344 69.837595 49.458984 70.206439 C 49.252344 70.422348 49.728516 73.049242 50.528125 76.044981 C 52.378906 83.017045 52.360938 83.925663 50.330469 84.699337 C 49.171484 85.149148 47.626172 84.141572 45.263281 81.424716 L 41.867188 77.502367 L 42.532031 82.747159 C 43.044141 86.87642 42.873438 88.108902 41.714453 88.558712 C 40.905859 88.864583 36.171094 87.407197 31.19375 85.31108 L 22.155469 81.496686 L 21.517578 77.295455 C 20.646094 71.456913 22.667578 57.92661 25.569531 50.225852 C 28.857813 41.49053 35.9375 31.108902 42.738672 25.045455 C 49.656641 18.874053 61.614844 12.54072 70.114063 10.534564 C 79.125391 8.411458 93.967578 8.564394 102.269141 10.867424 C 109.492578 12.864583 111.370313 12.018939 105.314844 9.491004 C 91.496875 3.715436 75.217188 2.581913 61.219531 6.423295 M 117.812109 51.665246 C 118.126563 53.914299 115.017969 55.749527 113.005469 54.508049 C 111.846484 53.788352 111.657813 50.675663 112.708984 49.623106 C 114.155469 48.183712 117.506641 49.524148 117.812109 51.665246 " transform="matrix(0.434783,0,0,0.434211,0,0)"/>
</g>
</svg>
