<?xml version="1.0" encoding="UTF-8"?>
<svg xmlns="http://www.w3.org/2000/svg" width="36px" height="36px"
     viewBox="0 0 36 36" version="1.1">
    <g id="surface1">
        <path style="fill-rule:nonzero;fill:rgb(3,169,244);fill-opacity:1;stroke-width:1;stroke-linecap:butt;stroke-linejoin:miter;stroke:rgb(60.784314%,89.803922%,100%);stroke-opacity:1;stroke-miterlimit:4;"
              d="M 61.221528 6.415799 C 47.309722 10.242188 38.748611 15.206597 28.382639 25.498264 C 20.540278 33.282986 18.607639 35.905382 14.710417 44.036458 C 4.45625 65.394965 4.392361 86.605035 14.486806 107.551215 C 28.781944 137.189236 63.25 153.764757 94.331944 145.947049 C 98.820139 144.809028 106.327083 142.021701 111.006944 139.74566 C 122.714583 134.022569 135.652083 121.223958 141.849306 109.217014 C 144.213194 104.664931 145.970139 100.162326 145.778472 99.222222 C 145.554861 98.117188 144.18125 99.832465 141.961111 103.972222 C 134.965278 117.034722 121.277083 128.62934 106.80625 133.742188 C 97.111111 137.172743 80.563889 138.013889 70.980556 135.58941 C 47.549306 129.65191 28.670139 111.262153 23.766667 89.573785 L 22.504861 83.949653 L 26.721528 89.639757 C 29.963889 94.02691 31.321528 97.094618 32.583333 102.916667 C 33.49375 107.08941 34.563889 110.849826 34.963194 111.295139 C 35.3625 111.740451 37.183333 107.914062 39.004167 102.801215 C 40.825 97.688368 42.805556 93.152778 43.396528 92.740451 C 44.051389 92.278646 46.047917 93.713542 48.315972 96.236979 L 52.117361 100.492188 L 51.4625 94.884549 C 50.871528 89.903646 51.015278 89.227431 52.724306 88.782118 C 54.209722 88.402778 55.439583 89.524306 58.075 93.631076 C 63.154167 101.580729 63.697222 100.888021 60.902083 90.002604 C 59.720139 85.335069 59.720139 85.302083 61.844444 84.741319 C 63.281944 84.378472 64.671528 85.846354 67.945833 91.124132 C 70.277778 94.917535 72.529861 98.001736 72.961111 98.001736 C 73.6 98.001736 71.859028 90.414931 69.511111 83.026042 C 69.127778 81.805556 69.575 81.079861 70.916667 80.733507 C 72.529861 80.304688 73.807639 81.838542 78.104167 89.359375 C 84.173611 99.997396 83.838194 99.502604 84.572917 98.760417 C 84.892361 98.447049 83.774306 93.861979 82.08125 88.584201 C 78.535417 77.517361 78.519444 77.40191 80.452083 76.659722 C 81.953472 76.082465 82.320833 76.577257 89.955556 89.821181 C 92.271528 93.861979 94.395833 96.929688 94.667361 96.665799 C 94.938889 96.40191 93.517361 91.124132 91.520833 84.939236 C 88.645833 76.032986 88.166667 73.509549 89.188889 72.866319 C 89.907639 72.404514 90.722222 72.025174 90.99375 72.025174 C 91.28125 72.025174 94.188194 76.857639 97.478472 82.762153 C 100.76875 88.666667 103.579861 92.822917 103.739583 91.998264 C 103.883333 91.173611 102.461806 85.780382 100.577083 80.007812 C 97.574306 70.821181 97.334722 69.386285 98.692361 68.627604 C 100.449306 67.654514 100.113889 67.242188 106.678472 78.506944 C 112.156944 87.891493 111.869444 87.462674 112.476389 86.868924 C 112.731944 86.605035 111.438194 81.607639 109.601389 75.752604 C 106.311111 65.279514 106.311111 63.993056 109.633333 63.993056 C 109.904861 63.993056 111.645833 67.374132 113.530556 71.497396 C 115.415278 75.62066 117.3 79.001736 117.73125 78.985243 C 120.478472 78.96875 127.9375 62.55816 127.969444 56.505208 C 127.985417 52.019097 125.829167 50.006944 116.677083 45.966146 C 112.252778 44.019965 100.992361 42.040799 100.992361 43.211806 C 100.992361 43.492188 102.573611 47.12066 104.50625 51.293403 C 106.422917 55.466146 108.004167 59.078125 108.004167 59.325521 C 108.004167 59.572917 107.157639 59.985243 106.151389 60.249132 C 104.665972 60.644965 103.180556 58.830729 98.9 51.375868 C 95.929167 46.230035 93.165972 42.007812 92.750694 42.007812 C 91.776389 41.991319 91.536806 41.001736 95.370139 53.173611 C 98.516667 63.201389 98.6125 63.861111 96.871528 64.322917 C 95.370139 64.71875 93.884722 62.805556 89.316667 54.657986 C 82.720139 42.865451 83.151389 43.525174 82.480556 44.184896 C 82.177083 44.481771 83.582639 49.792535 85.579167 55.977431 C 88.454167 64.900174 88.949306 67.423611 87.911111 68.050347 C 87.192361 68.49566 86.281944 68.677083 85.914583 68.446181 C 85.53125 68.215278 82.624306 63.415799 79.429861 57.791667 C 76.251389 52.167535 73.504167 48.011285 73.328472 48.539062 C 73.152778 49.06684 74.558333 54.443576 76.459028 60.463542 C 79.733333 70.854167 79.813194 72.965278 77.002083 72.965278 C 76.730556 72.965278 74.03125 68.710069 70.996528 63.498264 C 67.977778 58.286458 65.166667 54.03125 64.751389 54.014757 C 63.793056 53.998264 63.5375 52.893229 67.386806 64.999132 C 70.565278 74.911458 70.629167 76.923611 67.865972 76.989583 C 67.514583 76.989583 65.294444 73.954861 62.914583 70.243924 C 57.611806 61.947917 58.090972 62.574653 57.563889 63.102431 C 57.308333 63.349826 58.154861 67.242188 59.432639 71.744792 C 61.732639 79.908854 61.732639 79.94184 59.720139 80.585069 C 58.490278 80.980903 57.404167 80.700521 56.940972 79.859375 C 55.184028 76.775174 49.817361 69.84809 49.465972 70.210938 C 49.242361 70.425347 49.721528 73.047743 50.520139 76.049479 C 52.372917 83.009549 52.356944 83.93316 50.328472 84.708333 C 49.178472 85.153646 47.629167 84.147569 45.265278 81.426215 L 41.863194 77.500868 L 42.534028 82.74566 C 43.045139 86.868924 42.869444 88.105903 41.719444 88.551215 C 40.904861 88.864583 36.177083 87.413194 31.19375 85.302083 L 22.153472 81.492188 L 21.514583 77.302951 C 20.652083 71.46441 22.664583 57.923611 25.571528 50.221354 C 28.861806 41.496528 35.9375 31.105903 42.741667 25.052951 C 49.657639 18.868056 61.620833 12.534722 70.118056 10.539062 C 79.126389 8.411458 93.964583 8.559896 102.270139 10.868924 C 109.489583 12.864583 111.374306 12.023438 105.320833 9.483507 C 91.504861 3.710938 75.213194 2.572917 61.221528 6.415799 M 117.811111 51.65625 C 118.130556 53.915799 115.015972 55.746528 113.003472 54.509549 C 111.853472 53.783854 111.661806 50.68316 112.715972 49.627604 C 114.153472 48.176215 117.507639 49.528646 117.811111 51.65625 "
              transform="matrix(0.244565,0,0,0.236842,0,0)"/>
    </g>
</svg>
