<?xml version="1.0" encoding="utf-8"?>
<!DOCTYPE svg PUBLIC "-//W3C//DTD SVG 20010904//EN" "http://www.w3.org/TR/2001/REC-SVG-20010904/DTD/svg10.dtd">
<svg version="1.0" xmlns="http://www.w3.org/2000/svg" width="147pt" height="152pt" viewBox="0 0 147 152" style="" preserveAspectRatio="xMidYMid meet">
<g fill="#039BE5FF" stroke="#039BE5FF">
<path d="M 61.221 6.419 C 47.304 10.236 38.749 15.208 28.378 25.506 C 20.547 33.283 18.614 35.903 14.713 44.032 C 4.462 65.391 4.385 86.608 14.482 107.544 C 28.777 137.182 63.255 153.764 94.333 145.946 C 98.825 144.816 106.325 142.024 111.000 139.743 C 122.712 134.027 135.660 121.219 141.857 109.218 C 144.210 104.663 145.977 100.163 145.784 99.218 C 145.560 98.121 144.180 99.839 141.966 103.973 C 134.970 117.039 121.278 128.631 106.807 133.741 C 97.105 137.167 80.563 138.021 70.981 135.590 C 47.544 129.646 28.675 111.255 23.772 89.577 L 22.500 83.954 26.719 89.646 C 29.962 94.020 31.321 97.093 32.589 102.919 C 33.496 107.089 34.566 110.858 34.966 111.297 C 35.366 111.735 37.181 107.910 39.000 102.797 C 40.819 97.683 42.801 93.157 43.404 92.738 C 44.055 92.285 46.049 93.707 48.312 96.238 L 52.125 100.500 51.465 94.892 C 50.877 89.896 51.015 89.229 52.727 88.782 C 54.203 88.396 55.446 89.524 58.075 93.634 C 63.160 101.585 63.701 100.891 60.909 90.000 C 59.714 85.341 59.720 85.306 61.852 84.749 C 63.278 84.376 64.677 85.842 67.941 91.132 C 70.272 94.910 72.528 98.000 72.955 98.000 C 73.600 98.000 71.854 90.418 69.507 83.023 C 69.123 81.812 69.569 81.084 70.911 80.734 C 72.530 80.310 73.802 81.836 78.101 89.360 C 84.176 99.992 83.836 99.498 84.576 98.757 C 84.893 98.441 83.768 93.860 82.076 88.579 C 78.535 77.523 78.518 77.399 80.450 76.658 C 81.961 76.078 82.326 76.582 89.957 89.827 C 92.279 93.857 94.399 96.935 94.668 96.665 C 94.937 96.396 93.521 91.116 91.522 84.932 C 88.647 76.038 88.160 73.515 89.194 72.859 C 89.912 72.403 90.725 72.031 91.000 72.032 C 91.275 72.033 94.192 76.864 97.482 82.767 C 100.772 88.670 103.585 92.825 103.734 92.000 C 103.882 91.175 102.460 85.775 100.572 80.000 C 97.573 70.822 97.336 69.392 98.689 68.634 C 100.447 67.650 100.110 67.234 106.686 78.500 C 112.164 87.885 111.872 87.462 112.471 86.862 C 112.730 86.603 111.439 81.604 109.602 75.752 C 106.313 65.277 106.317 64.000 109.639 64.000 C 109.900 64.000 111.652 67.375 113.532 71.500 C 115.411 75.625 117.298 78.997 117.725 78.993 C 120.472 78.969 127.944 62.563 127.969 56.500 C 127.988 52.020 125.832 50.009 116.675 45.969 C 112.255 44.019 101.000 42.044 101.000 43.219 C 101.000 43.494 102.575 47.127 104.500 51.294 C 106.425 55.460 108.000 59.071 108.000 59.318 C 108.000 59.565 107.165 59.985 106.144 60.252 C 104.666 60.639 103.185 58.826 98.894 51.376 C 95.927 46.228 93.163 42.012 92.750 42.008 C 91.774 41.998 91.541 41.004 95.367 53.170 C 98.523 63.202 98.612 63.868 96.865 64.325 C 95.372 64.715 93.886 62.810 89.321 54.656 C 82.718 42.859 83.149 43.518 82.473 44.193 C 82.184 44.483 83.583 49.788 85.583 55.983 C 88.461 64.900 88.945 67.416 87.907 68.057 C 87.186 68.503 86.286 68.677 85.909 68.444 C 85.531 68.210 82.617 63.418 79.433 57.794 C 76.249 52.171 73.501 48.004 73.328 48.535 C 73.154 49.066 74.564 54.436 76.461 60.469 C 79.728 70.854 79.819 72.973 77.000 72.969 C 76.725 72.968 74.025 68.707 71.000 63.500 C 67.975 58.293 65.163 54.025 64.750 54.016 C 63.793 53.996 63.530 52.901 67.393 65.000 C 70.558 74.909 70.637 76.918 67.867 76.985 C 67.520 76.993 65.293 73.963 62.919 70.250 C 57.615 61.954 58.086 62.581 57.558 63.109 C 57.315 63.352 58.157 67.240 59.429 71.749 C 61.732 79.910 61.733 79.950 59.725 80.587 C 58.490 80.979 57.408 80.698 56.935 79.864 C 55.190 76.778 49.825 69.842 49.463 70.203 C 49.249 70.418 49.727 73.047 50.525 76.047 C 52.380 83.016 52.359 83.925 50.332 84.703 C 49.174 85.147 47.628 84.146 45.267 81.421 L 41.870 77.500 42.528 82.746 C 43.047 86.877 42.874 88.111 41.715 88.556 C 40.905 88.867 36.173 87.406 31.198 85.310 L 22.152 81.500 21.522 77.297 C 20.646 71.458 22.668 57.929 25.567 50.226 C 28.854 41.494 35.936 31.109 42.737 25.047 C 49.661 18.875 61.617 12.538 70.114 10.535 C 79.125 8.411 93.969 8.563 102.272 10.866 C 109.490 12.867 111.370 12.017 105.317 9.488 C 91.499 3.715 75.216 2.581 61.221 6.419 M 117.808 51.664 C 118.128 53.911 115.022 55.750 113.009 54.506 C 111.850 53.789 111.658 50.675 112.709 49.624 C 114.151 48.182 117.503 49.523 117.808 51.664 "/></g>
</svg>
